<!-- Created by Centis MENANT (from the Noun Project): https://thenounproject.com/search/?q=fullscreen&i=258182 -->
<svg xmlns="http://www.w3.org/2000/svg" xmlns:xlink="http://www.w3.org/1999/xlink" version="1.1" x="0px" y="0px" viewBox="0 0 100 125" style="enable-background:new 0 0 100 100;" xml:space="preserve"><g><path style="" d="M90.8,30.8c0,0-1.6,0.4-2.6-0.6c-1.2-1.2-2.9-2.9-4.8-4.8L68.7,39.9   c-1.3,1.3-3.1,1.6-4.1,0.7l-5.2-5.2c-0.9-0.9-0.6-2.7,0.7-4l14.6-14.4c-2-2-3.8-3.8-5.1-5c-1.1-1.1-0.7-2.7-0.7-2.7   C69,7.6,70.5,6.1,72.3,6l20-1.1c1.7-0.1,3.1,1.2,3,2.9l-1.2,19.7C94,29.3,92.5,30.7,90.8,30.8z M25.5,83c2,2,3.8,3.8,5.1,5   c1.1,1.1,0.7,2.7,0.7,2.7c-0.1,1.7-1.6,3.2-3.3,3.3L8,95.1c-1.7,0.1-3.1-1.2-3-2.9l1.2-19.8c0.1-1.7,1.6-3.2,3.3-3.3   c0,0,1.6-0.4,2.6,0.6c1.2,1.2,2.9,2.9,4.8,4.8L31.5,60c1.3-1.3,3.1-1.6,4.1-0.7l5.2,5.2c0.9,0.9,0.6,2.7-0.7,4L25.5,83z M35.6,40.7   c-0.9,0.9-2.7,0.6-4-0.7L17.1,25.4c-2,2-3.8,3.8-5,5.1c-1.1,1.1-2.7,0.7-2.7,0.7c-1.7-0.1-3.2-1.6-3.3-3.3L5,7.8   c-0.1-1.7,1.2-3.1,2.9-3L27.7,6c1.7,0.1,3.2,1.6,3.3,3.3c0,0,0.4,1.6-0.6,2.6c-1.2,1.2-2.9,2.9-4.8,4.8l14.5,14.6   c1.3,1.3,1.6,3.1,0.7,4.1L35.6,40.7z M64.8,59.3c0.9-0.9,2.7-0.6,4,0.7l14.4,14.6c2-2,3.8-3.8,5-5.1c1.1-1.1,2.7-0.7,2.7-0.7   c1.7,0.1,3.2,1.6,3.3,3.3l1.1,20c0.1,1.7-1.2,3.1-2.9,3L72.6,94c-1.7-0.1-3.2-1.6-3.3-3.3c0,0-0.4-1.6,0.6-2.6   c1.2-1.2,2.9-2.9,4.8-4.8L60.3,68.6c-1.3-1.3-1.6-3.1-0.7-4.1L64.8,59.3z" fill="#fff" clip-rule="evenodd"/></g></svg>
