<!-- Created by Martha Ormiston (from the Noun Project): https://thenounproject.com/search/?q=calibrate&i=415122 -->
<svg xmlns="http://www.w3.org/2000/svg" viewBox="0 0.5 100.1 125.125"><path fill="transparent" d="M77.5 48.2h7.3c-1.1-17.5-15.1-31.5-32.6-32.6v7c0 2.9-4.5 2.9-4.5 0v-7c-17.5 1.1-31.5 15.1-32.6 32.6h7.3c2.9 0 2.9 4.5 0 4.5h-7.3c1.1 17.5 15.1 31.5 32.6 32.6V78c0-2.9 4.5-2.9 4.5 0v7.3c17.5-1.1 31.5-15.1 32.6-32.6h-7.3c-2.9 0-2.9-4.5 0-4.5zm-18 4h-7.4v7.9c0 2.9-4.5 2.9-4.5 0v-7.9h-7.4c-2.9 0-2.9-4.5 0-4.5h7.4v-6.9c0-2.9 4.5-2.9 4.5 0v6.9h7.4c2.9 0 2.9 4.5 0 4.5z"/><path fill="#fff" d="M96.7 48.2h-7.4c-1.1-20-17.2-36-37.1-37.1V3.4c0-2.9-4.5-2.9-4.5 0v7.7c-20 1.1-36 17.2-37.1 37.1H3.2c-2.9 0-2.9 4.5 0 4.5h7.4c1.1 20 17.2 36 37.1 37.1v7.4c0 2.9 4.5 2.9 4.5 0v-7.4c20-1.1 36-17.2 37.1-37.1h7.4c2.9 0 2.9-4.5 0-4.5zM52.1 85.3V78c0-2.9-4.5-2.9-4.5 0v7.3C30.1 84.2 16.1 70.2 15 52.7h7.3c2.9 0 2.9-4.5 0-4.5H15c1.1-17.5 15.1-31.5 32.6-32.6v7c0 2.9 4.5 2.9 4.5 0v-7c17.5 1.1 31.5 15.1 32.6 32.6h-7.3c-2.9 0-2.9 4.5 0 4.5h7.3c-1 17.5-15.1 31.5-32.6 32.6z"/><path fill="#fff" d="M59.5 47.7h-7.4v-6.9c0-2.9-4.5-2.9-4.5 0v6.9h-7.4c-2.9 0-2.9 4.5 0 4.5h7.4v7.9c0 2.9 4.5 2.9 4.5 0v-7.9h7.4c2.9 0 2.9-4.5 0-4.5z"/></svg>
