<!-- Created by Nick Bluth (from the Noun Project): https://thenounproject.com/search/?q=vr&i=337515 -->
<svg xmlns="http://www.w3.org/2000/svg" viewBox="0 0 62.7 52.375"><path fill="#fff" d="M53.4 5.5h-44c-2.1 0-3.7 1.7-3.7 3.7v22.6c0 2.1 1.7 3.7 3.7 3.7h13.4c1.1 0 2.1-.6 2.5-1.6l3-7.5c1.2-2.6 4.9-2.5 6 .1l2.6 7.3c.4 1 1.4 1.7 2.5 1.7h13.9c2.1 0 3.7-1.7 3.7-3.7V9.3c.2-2.1-1.5-3.8-3.6-3.8zM20.4 27c-3.2 0-5.7-2.6-5.7-5.7s2.6-5.7 5.7-5.7 5.7 2.6 5.7 5.7-2.5 5.7-5.7 5.7zm22 0c-3.2 0-5.7-2.6-5.7-5.7s2.6-5.7 5.7-5.7 5.7 2.6 5.7 5.7-2.5 5.7-5.7 5.7z"/></svg>
